<?xml version="1.0" encoding="UTF-8" standalone="no"?>
<!DOCTYPE svg PUBLIC "-//W3C//DTD SVG 1.1//EN"
 "http://www.w3.org/Graphics/SVG/1.1/DTD/svg11.dtd">
<!-- Generated by graphviz version 2.40.1 (0)
 -->
<!-- Title: post_DB Pages: 1 -->
<svg width="568pt" height="603pt"
 viewBox="0.00 0.00 568.00 603.00" xmlns="http://www.w3.org/2000/svg" xmlns:xlink="http://www.w3.org/1999/xlink">
<g id="graph0" class="graph" transform="scale(1 1) rotate(0) translate(4 599)">
<title>post_DB</title>
<polygon fill="#ffffff" stroke="transparent" points="-4,4 -4,-599 564,-599 564,4 -4,4"/>
<!-- entries -->
<g id="node1" class="node">
<title>entries</title>
<polygon fill="#efefef" stroke="transparent" points="50,-517.5 50,-551.5 223,-551.5 223,-517.5 50,-517.5"/>
<polygon fill="none" stroke="#000000" points="50,-517.5 50,-551.5 223,-551.5 223,-517.5 50,-517.5"/>
<text text-anchor="start" x="60.5" y="-531.1" font-family="Arial Bold" font-size="18.00" fill="#000000">entries</text>
<text text-anchor="start" x="113.5" y="-531.1" font-family="Arial" font-size="14.00" fill="#000000"> </text>
<text text-anchor="start" x="121.5" y="-531.1" font-family="Arial" font-size="14.00" fill="#666666">[BASE TABLE]</text>
<polygon fill="none" stroke="#000000" points="50,-488.5 50,-517.5 223,-517.5 223,-488.5 50,-488.5"/>
<text text-anchor="start" x="57" y="-500.3" font-family="Arial" font-size="14.00" fill="#000000">id </text>
<text text-anchor="start" x="80" y="-500.3" font-family="Arial" font-size="14.00" fill="#666666">[int(11)]</text>
<polygon fill="none" stroke="#000000" points="50,-459.5 50,-488.5 223,-488.5 223,-459.5 50,-459.5"/>
<text text-anchor="start" x="57" y="-471.3" font-family="Arial" font-size="14.00" fill="#000000">post_id </text>
<text text-anchor="start" x="118" y="-471.3" font-family="Arial" font-size="14.00" fill="#666666">[int(11)]</text>
<polygon fill="none" stroke="#000000" points="50,-430.5 50,-459.5 223,-459.5 223,-430.5 50,-430.5"/>
<text text-anchor="start" x="57" y="-442.3" font-family="Arial" font-size="14.00" fill="#000000">user_id </text>
<text text-anchor="start" x="118" y="-442.3" font-family="Arial" font-size="14.00" fill="#666666">[int(11)]</text>
<polygon fill="none" stroke="#000000" points="50,-401.5 50,-430.5 223,-430.5 223,-401.5 50,-401.5"/>
<text text-anchor="start" x="57" y="-413.3" font-family="Arial" font-size="14.00" fill="#000000">created_at </text>
<text text-anchor="start" x="140" y="-413.3" font-family="Arial" font-size="14.00" fill="#666666">[datetime]</text>
<polygon fill="none" stroke="#000000" points="50,-372.5 50,-401.5 223,-401.5 223,-372.5 50,-372.5"/>
<text text-anchor="start" x="57" y="-384.3" font-family="Arial" font-size="14.00" fill="#000000">updated_at </text>
<text text-anchor="start" x="140" y="-384.3" font-family="Arial" font-size="14.00" fill="#666666">[datetime]</text>
</g>
<!-- posts -->
<g id="node2" class="node">
<title>posts</title>
<polygon fill="#efefef" stroke="transparent" points="43,-217 43,-251 231,-251 231,-217 43,-217"/>
<polygon fill="none" stroke="#000000" points="43,-217 43,-251 231,-251 231,-217 43,-217"/>
<text text-anchor="start" x="68.5" y="-230.6" font-family="Arial Bold" font-size="18.00" fill="#000000">posts</text>
<text text-anchor="start" x="106.5" y="-230.6" font-family="Arial" font-size="14.00" fill="#000000"> </text>
<text text-anchor="start" x="114.5" y="-230.6" font-family="Arial" font-size="14.00" fill="#666666">[BASE TABLE]</text>
<polygon fill="none" stroke="#000000" points="43,-188 43,-217 231,-217 231,-188 43,-188"/>
<text text-anchor="start" x="50" y="-199.8" font-family="Arial" font-size="14.00" fill="#000000">id </text>
<text text-anchor="start" x="73" y="-199.8" font-family="Arial" font-size="14.00" fill="#666666">[int(11)]</text>
<polygon fill="none" stroke="#000000" points="43,-159 43,-188 231,-188 231,-159 43,-159"/>
<text text-anchor="start" x="50" y="-170.8" font-family="Arial" font-size="14.00" fill="#000000">title </text>
<text text-anchor="start" x="96" y="-170.8" font-family="Arial" font-size="14.00" fill="#666666">[varchar(255)]</text>
<polygon fill="none" stroke="#000000" points="43,-130 43,-159 231,-159 231,-130 43,-130"/>
<text text-anchor="start" x="50" y="-141.8" font-family="Arial" font-size="14.00" fill="#000000">content </text>
<text text-anchor="start" x="111" y="-141.8" font-family="Arial" font-size="14.00" fill="#666666">[varchar(5000)]</text>
<polygon fill="none" stroke="#000000" points="43,-101 43,-130 231,-130 231,-101 43,-101"/>
<text text-anchor="start" x="50" y="-112.8" font-family="Arial" font-size="14.00" fill="#000000">user_id </text>
<text text-anchor="start" x="111" y="-112.8" font-family="Arial" font-size="14.00" fill="#666666">[int(11)]</text>
<polygon fill="none" stroke="#000000" points="43,-72 43,-101 231,-101 231,-72 43,-72"/>
<text text-anchor="start" x="50" y="-83.8" font-family="Arial" font-size="14.00" fill="#000000">created_at </text>
<text text-anchor="start" x="133" y="-83.8" font-family="Arial" font-size="14.00" fill="#666666">[datetime]</text>
<polygon fill="none" stroke="#000000" points="43,-43 43,-72 231,-72 231,-43 43,-43"/>
<text text-anchor="start" x="50" y="-54.8" font-family="Arial" font-size="14.00" fill="#000000">updated_at </text>
<text text-anchor="start" x="133" y="-54.8" font-family="Arial" font-size="14.00" fill="#666666">[datetime]</text>
</g>
<!-- entries&#45;&gt;posts -->
<g id="edge1" class="edge">
<title>entries:post_id&#45;&gt;posts:id</title>
<path fill="none" stroke="#000000" d="M233.0812,-473.6127C284.5042,-463.902 261.41,-376.8527 223,-330 171.2765,-266.9074 94.7235,-357.0926 43,-294 17.3587,-262.7226 2.5556,-203 43,-203"/>
<polygon fill="#000000" stroke="#000000" points="232.9615,-473.6232 222.6054,-470.0173 227.9807,-474.0616 223,-474.5 223,-474.5 223,-474.5 227.9807,-474.0616 223.3946,-478.9827 232.9615,-473.6232 232.9615,-473.6232"/>
<text text-anchor="start" x="230.5" y="-484" font-family="Arial" font-size="10.00" fill="#000000">FOREIGN KEY (post_id) REFERENCES posts (id)</text>
</g>
</g>
</svg>
