<?xml version="1.0" encoding="UTF-8" standalone="no"?>
<!DOCTYPE svg PUBLIC "-//W3C//DTD SVG 1.1//EN"
 "http://www.w3.org/Graphics/SVG/1.1/DTD/svg11.dtd">
<!-- Generated by graphviz version 2.40.1 (0)
 -->
<!-- Title: posts Pages: 1 -->
<svg width="571pt" height="609pt"
 viewBox="0.00 0.00 571.00 609.00" xmlns="http://www.w3.org/2000/svg" xmlns:xlink="http://www.w3.org/1999/xlink">
<g id="graph0" class="graph" transform="scale(1 1) rotate(0) translate(4 605)">
<title>posts</title>
<polygon fill="#ffffff" stroke="transparent" points="-4,4 -4,-605 567,-605 567,4 -4,4"/>
<!-- posts -->
<g id="node1" class="node">
<title>posts</title>
<polygon fill="#efefef" stroke="transparent" points="46,-220 46,-254 234,-254 234,-220 46,-220"/>
<polygon fill="none" stroke="#000000" points="46,-220 46,-254 234,-254 234,-220 46,-220"/>
<text text-anchor="start" x="71.5" y="-233.6" font-family="Arial Bold" font-size="18.00" fill="#000000">posts</text>
<text text-anchor="start" x="109.5" y="-233.6" font-family="Arial" font-size="14.00" fill="#000000"> </text>
<text text-anchor="start" x="117.5" y="-233.6" font-family="Arial" font-size="14.00" fill="#666666">[BASE TABLE]</text>
<polygon fill="none" stroke="#000000" points="46,-191 46,-220 234,-220 234,-191 46,-191"/>
<text text-anchor="start" x="53" y="-202.8" font-family="Arial" font-size="14.00" fill="#000000">id </text>
<text text-anchor="start" x="76" y="-202.8" font-family="Arial" font-size="14.00" fill="#666666">[int(11)]</text>
<polygon fill="none" stroke="#000000" points="46,-162 46,-191 234,-191 234,-162 46,-162"/>
<text text-anchor="start" x="53" y="-173.8" font-family="Arial" font-size="14.00" fill="#000000">title </text>
<text text-anchor="start" x="99" y="-173.8" font-family="Arial" font-size="14.00" fill="#666666">[varchar(255)]</text>
<polygon fill="none" stroke="#000000" points="46,-133 46,-162 234,-162 234,-133 46,-133"/>
<text text-anchor="start" x="53" y="-144.8" font-family="Arial" font-size="14.00" fill="#000000">content </text>
<text text-anchor="start" x="114" y="-144.8" font-family="Arial" font-size="14.00" fill="#666666">[varchar(5000)]</text>
<polygon fill="none" stroke="#000000" points="46,-104 46,-133 234,-133 234,-104 46,-104"/>
<text text-anchor="start" x="53" y="-115.8" font-family="Arial" font-size="14.00" fill="#000000">user_id </text>
<text text-anchor="start" x="114" y="-115.8" font-family="Arial" font-size="14.00" fill="#666666">[int(11)]</text>
<polygon fill="none" stroke="#000000" points="46,-75 46,-104 234,-104 234,-75 46,-75"/>
<text text-anchor="start" x="53" y="-86.8" font-family="Arial" font-size="14.00" fill="#000000">created_at </text>
<text text-anchor="start" x="136" y="-86.8" font-family="Arial" font-size="14.00" fill="#666666">[datetime]</text>
<polygon fill="none" stroke="#000000" points="46,-46 46,-75 234,-75 234,-46 46,-46"/>
<text text-anchor="start" x="53" y="-57.8" font-family="Arial" font-size="14.00" fill="#000000">updated_at </text>
<text text-anchor="start" x="136" y="-57.8" font-family="Arial" font-size="14.00" fill="#666666">[datetime]</text>
<polygon fill="none" stroke="#000000" stroke-width="3" points="44.5,-44.5 44.5,-255.5 235.5,-255.5 235.5,-44.5 44.5,-44.5"/>
</g>
<!-- entries -->
<g id="node2" class="node">
<title>entries</title>
<polygon fill="#efefef" stroke="transparent" points="53,-523.5 53,-557.5 226,-557.5 226,-523.5 53,-523.5"/>
<polygon fill="none" stroke="#000000" points="53,-523.5 53,-557.5 226,-557.5 226,-523.5 53,-523.5"/>
<text text-anchor="start" x="63.5" y="-537.1" font-family="Arial Bold" font-size="18.00" fill="#000000">entries</text>
<text text-anchor="start" x="116.5" y="-537.1" font-family="Arial" font-size="14.00" fill="#000000"> </text>
<text text-anchor="start" x="124.5" y="-537.1" font-family="Arial" font-size="14.00" fill="#666666">[BASE TABLE]</text>
<polygon fill="none" stroke="#000000" points="53,-494.5 53,-523.5 226,-523.5 226,-494.5 53,-494.5"/>
<text text-anchor="start" x="60" y="-506.3" font-family="Arial" font-size="14.00" fill="#000000">id </text>
<text text-anchor="start" x="83" y="-506.3" font-family="Arial" font-size="14.00" fill="#666666">[int(11)]</text>
<polygon fill="none" stroke="#000000" points="53,-465.5 53,-494.5 226,-494.5 226,-465.5 53,-465.5"/>
<text text-anchor="start" x="60" y="-477.3" font-family="Arial" font-size="14.00" fill="#000000">post_id </text>
<text text-anchor="start" x="121" y="-477.3" font-family="Arial" font-size="14.00" fill="#666666">[int(11)]</text>
<polygon fill="none" stroke="#000000" points="53,-436.5 53,-465.5 226,-465.5 226,-436.5 53,-436.5"/>
<text text-anchor="start" x="60" y="-448.3" font-family="Arial" font-size="14.00" fill="#000000">user_id </text>
<text text-anchor="start" x="121" y="-448.3" font-family="Arial" font-size="14.00" fill="#666666">[int(11)]</text>
<polygon fill="none" stroke="#000000" points="53,-407.5 53,-436.5 226,-436.5 226,-407.5 53,-407.5"/>
<text text-anchor="start" x="60" y="-419.3" font-family="Arial" font-size="14.00" fill="#000000">created_at </text>
<text text-anchor="start" x="143" y="-419.3" font-family="Arial" font-size="14.00" fill="#666666">[datetime]</text>
<polygon fill="none" stroke="#000000" points="53,-378.5 53,-407.5 226,-407.5 226,-378.5 53,-378.5"/>
<text text-anchor="start" x="60" y="-390.3" font-family="Arial" font-size="14.00" fill="#000000">updated_at </text>
<text text-anchor="start" x="143" y="-390.3" font-family="Arial" font-size="14.00" fill="#666666">[datetime]</text>
</g>
<!-- entries&#45;&gt;posts -->
<g id="edge1" class="edge">
<title>entries:post_id&#45;&gt;posts:id</title>
<path fill="none" stroke="#000000" d="M236.0812,-479.6127C287.5042,-469.902 264.41,-382.8527 226,-336 174.2765,-272.9074 97.7235,-363.0926 46,-300 19.5134,-267.6915 4.2222,-206 46,-206"/>
<polygon fill="#000000" stroke="#000000" points="235.9615,-479.6232 225.6054,-476.0173 230.9807,-480.0616 226,-480.5 226,-480.5 226,-480.5 230.9807,-480.0616 226.3946,-484.9827 235.9615,-479.6232 235.9615,-479.6232"/>
<text text-anchor="start" x="233.5" y="-490" font-family="Arial" font-size="10.00" fill="#000000">FOREIGN KEY (post_id) REFERENCES posts (id)</text>
</g>
</g>
</svg>
