<?xml version="1.0" encoding="UTF-8" standalone="no"?>
<!DOCTYPE svg PUBLIC "-//W3C//DTD SVG 1.1//EN"
 "http://www.w3.org/Graphics/SVG/1.1/DTD/svg11.dtd">
<!-- Generated by graphviz version 2.40.1 (0)
 -->
<!-- Title: post_DB Pages: 1 -->
<svg width="1072pt" height="748pt"
 viewBox="0.00 0.00 1071.50 748.00" xmlns="http://www.w3.org/2000/svg" xmlns:xlink="http://www.w3.org/1999/xlink">
<g id="graph0" class="graph" transform="scale(1 1) rotate(0) translate(4 744)">
<title>post_DB</title>
<polygon fill="#ffffff" stroke="transparent" points="-4,4 -4,-744 1067.5,-744 1067.5,4 -4,4"/>
<!-- apply_posts -->
<g id="node1" class="node">
<title>apply_posts</title>
<polygon fill="#efefef" stroke="transparent" points="141,-662.5 141,-696.5 337,-696.5 337,-662.5 141,-662.5"/>
<polygon fill="none" stroke="#000000" points="141,-662.5 141,-696.5 337,-696.5 337,-662.5 141,-662.5"/>
<text text-anchor="start" x="148" y="-676.1" font-family="Arial Bold" font-size="18.00" fill="#000000">apply_posts</text>
<text text-anchor="start" x="231" y="-676.1" font-family="Arial" font-size="14.00" fill="#000000"> </text>
<text text-anchor="start" x="239" y="-676.1" font-family="Arial" font-size="14.00" fill="#666666">[BASE TABLE]</text>
<polygon fill="none" stroke="#000000" points="141,-633.5 141,-662.5 337,-662.5 337,-633.5 141,-633.5"/>
<text text-anchor="start" x="148" y="-645.3" font-family="Arial" font-size="14.00" fill="#000000">id </text>
<text text-anchor="start" x="171" y="-645.3" font-family="Arial" font-size="14.00" fill="#666666">[int(11)]</text>
<polygon fill="none" stroke="#000000" points="141,-604.5 141,-633.5 337,-633.5 337,-604.5 141,-604.5"/>
<text text-anchor="start" x="148" y="-616.3" font-family="Arial" font-size="14.00" fill="#000000">post_id </text>
<text text-anchor="start" x="209" y="-616.3" font-family="Arial" font-size="14.00" fill="#666666">[int(11)]</text>
<polygon fill="none" stroke="#000000" points="141,-575.5 141,-604.5 337,-604.5 337,-575.5 141,-575.5"/>
<text text-anchor="start" x="148" y="-587.3" font-family="Arial" font-size="14.00" fill="#000000">user_id </text>
<text text-anchor="start" x="209" y="-587.3" font-family="Arial" font-size="14.00" fill="#666666">[int(11)]</text>
<polygon fill="none" stroke="#000000" points="141,-546.5 141,-575.5 337,-575.5 337,-546.5 141,-546.5"/>
<text text-anchor="start" x="148" y="-558.3" font-family="Arial" font-size="14.00" fill="#000000">created_at </text>
<text text-anchor="start" x="231" y="-558.3" font-family="Arial" font-size="14.00" fill="#666666">[datetime]</text>
<polygon fill="none" stroke="#000000" points="141,-517.5 141,-546.5 337,-546.5 337,-517.5 141,-517.5"/>
<text text-anchor="start" x="148" y="-529.3" font-family="Arial" font-size="14.00" fill="#000000">updated_at </text>
<text text-anchor="start" x="231" y="-529.3" font-family="Arial" font-size="14.00" fill="#666666">[datetime]</text>
</g>
<!-- posts -->
<g id="node2" class="node">
<title>posts</title>
<polygon fill="#efefef" stroke="transparent" points="274,-361.5 274,-395.5 522,-395.5 522,-361.5 274,-361.5"/>
<polygon fill="none" stroke="#000000" points="274,-361.5 274,-395.5 522,-395.5 522,-361.5 274,-361.5"/>
<text text-anchor="start" x="329.5" y="-375.1" font-family="Arial Bold" font-size="18.00" fill="#000000">posts</text>
<text text-anchor="start" x="367.5" y="-375.1" font-family="Arial" font-size="14.00" fill="#000000"> </text>
<text text-anchor="start" x="375.5" y="-375.1" font-family="Arial" font-size="14.00" fill="#666666">[BASE TABLE]</text>
<polygon fill="none" stroke="#000000" points="274,-332.5 274,-361.5 522,-361.5 522,-332.5 274,-332.5"/>
<text text-anchor="start" x="281" y="-344.3" font-family="Arial" font-size="14.00" fill="#000000">id </text>
<text text-anchor="start" x="304" y="-344.3" font-family="Arial" font-size="14.00" fill="#666666">[int(11)]</text>
<polygon fill="none" stroke="#000000" points="274,-303.5 274,-332.5 522,-332.5 522,-303.5 274,-303.5"/>
<text text-anchor="start" x="281" y="-315.3" font-family="Arial" font-size="14.00" fill="#000000">title </text>
<text text-anchor="start" x="327" y="-315.3" font-family="Arial" font-size="14.00" fill="#666666">[varchar(255)]</text>
<polygon fill="none" stroke="#000000" points="274,-274.5 274,-303.5 522,-303.5 522,-274.5 274,-274.5"/>
<text text-anchor="start" x="281" y="-286.3" font-family="Arial" font-size="14.00" fill="#000000">content </text>
<text text-anchor="start" x="342" y="-286.3" font-family="Arial" font-size="14.00" fill="#666666">[varchar(5000)]</text>
<polygon fill="none" stroke="#000000" points="274,-245.5 274,-274.5 522,-274.5 522,-245.5 274,-245.5"/>
<text text-anchor="start" x="281" y="-257.3" font-family="Arial" font-size="14.00" fill="#000000">fishing_spot_type_id </text>
<text text-anchor="start" x="439" y="-257.3" font-family="Arial" font-size="14.00" fill="#666666">[int(11)]</text>
<polygon fill="none" stroke="#000000" points="274,-216.5 274,-245.5 522,-245.5 522,-216.5 274,-216.5"/>
<text text-anchor="start" x="281" y="-228.3" font-family="Arial" font-size="14.00" fill="#000000">prefecture_id </text>
<text text-anchor="start" x="387" y="-228.3" font-family="Arial" font-size="14.00" fill="#666666">[int(11)]</text>
<polygon fill="none" stroke="#000000" points="274,-187.5 274,-216.5 522,-216.5 522,-187.5 274,-187.5"/>
<text text-anchor="start" x="281" y="-199.3" font-family="Arial" font-size="14.00" fill="#000000">meeting_place_id </text>
<text text-anchor="start" x="409" y="-199.3" font-family="Arial" font-size="14.00" fill="#666666">[varchar(255)]</text>
<polygon fill="none" stroke="#000000" points="274,-158.5 274,-187.5 522,-187.5 522,-158.5 274,-158.5"/>
<text text-anchor="start" x="281" y="-170.3" font-family="Arial" font-size="14.00" fill="#000000">meeting_at </text>
<text text-anchor="start" x="364" y="-170.3" font-family="Arial" font-size="14.00" fill="#666666">[datetime]</text>
<polygon fill="none" stroke="#000000" points="274,-129.5 274,-158.5 522,-158.5 522,-129.5 274,-129.5"/>
<text text-anchor="start" x="281" y="-141.3" font-family="Arial" font-size="14.00" fill="#000000">max_apply </text>
<text text-anchor="start" x="357" y="-141.3" font-family="Arial" font-size="14.00" fill="#666666">[int(11)]</text>
<polygon fill="none" stroke="#000000" points="274,-100.5 274,-129.5 522,-129.5 522,-100.5 274,-100.5"/>
<text text-anchor="start" x="281" y="-112.3" font-family="Arial" font-size="14.00" fill="#000000">user_id </text>
<text text-anchor="start" x="342" y="-112.3" font-family="Arial" font-size="14.00" fill="#666666">[int(11)]</text>
<polygon fill="none" stroke="#000000" points="274,-71.5 274,-100.5 522,-100.5 522,-71.5 274,-71.5"/>
<text text-anchor="start" x="281" y="-83.3" font-family="Arial" font-size="14.00" fill="#000000">created_at </text>
<text text-anchor="start" x="364" y="-83.3" font-family="Arial" font-size="14.00" fill="#666666">[datetime]</text>
<polygon fill="none" stroke="#000000" points="274,-42.5 274,-71.5 522,-71.5 522,-42.5 274,-42.5"/>
<text text-anchor="start" x="281" y="-54.3" font-family="Arial" font-size="14.00" fill="#000000">updated_at </text>
<text text-anchor="start" x="364" y="-54.3" font-family="Arial" font-size="14.00" fill="#666666">[datetime]</text>
</g>
<!-- apply_posts&#45;&gt;posts -->
<g id="edge1" class="edge">
<title>apply_posts:post_id&#45;&gt;posts:id</title>
<path fill="none" stroke="#000000" d="M347.0042,-618.6661C397.5979,-609.5304 367.4091,-527.4003 337,-475 320.8133,-447.1075 290.1867,-466.8925 274,-439 253.5883,-403.827 233.3333,-347.5 274,-347.5"/>
<polygon fill="#000000" stroke="#000000" points="346.9654,-618.6692 336.6262,-615.0156 341.9827,-619.0846 337,-619.5 337,-619.5 337,-619.5 341.9827,-619.0846 337.3738,-623.9844 346.9654,-618.6692 346.9654,-618.6692"/>
<text text-anchor="start" x="7.5" y="-629" font-family="Arial" font-size="10.00" fill="#000000">FOREIGN KEY (post_id) REFERENCES posts (id)</text>
</g>
<!-- posts_fish_types -->
<g id="node3" class="node">
<title>posts_fish_types</title>
<polygon fill="#efefef" stroke="transparent" points="441,-662.5 441,-696.5 675,-696.5 675,-662.5 441,-662.5"/>
<polygon fill="none" stroke="#000000" points="441,-662.5 441,-696.5 675,-696.5 675,-662.5 441,-662.5"/>
<text text-anchor="start" x="448" y="-676.1" font-family="Arial Bold" font-size="18.00" fill="#000000">posts_fish_types</text>
<text text-anchor="start" x="569" y="-676.1" font-family="Arial" font-size="14.00" fill="#000000"> </text>
<text text-anchor="start" x="577" y="-676.1" font-family="Arial" font-size="14.00" fill="#666666">[BASE TABLE]</text>
<polygon fill="none" stroke="#000000" points="441,-633.5 441,-662.5 675,-662.5 675,-633.5 441,-633.5"/>
<text text-anchor="start" x="448" y="-645.3" font-family="Arial" font-size="14.00" fill="#000000">id </text>
<text text-anchor="start" x="471" y="-645.3" font-family="Arial" font-size="14.00" fill="#666666">[int(11)]</text>
<polygon fill="none" stroke="#000000" points="441,-604.5 441,-633.5 675,-633.5 675,-604.5 441,-604.5"/>
<text text-anchor="start" x="448" y="-616.3" font-family="Arial" font-size="14.00" fill="#000000">post_id </text>
<text text-anchor="start" x="509" y="-616.3" font-family="Arial" font-size="14.00" fill="#666666">[int(11)]</text>
<polygon fill="none" stroke="#000000" points="441,-575.5 441,-604.5 675,-604.5 675,-575.5 441,-575.5"/>
<text text-anchor="start" x="448" y="-587.3" font-family="Arial" font-size="14.00" fill="#000000">fish_type_id </text>
<text text-anchor="start" x="546" y="-587.3" font-family="Arial" font-size="14.00" fill="#666666">[int(11)]</text>
<polygon fill="none" stroke="#000000" points="441,-546.5 441,-575.5 675,-575.5 675,-546.5 441,-546.5"/>
<text text-anchor="start" x="448" y="-558.3" font-family="Arial" font-size="14.00" fill="#000000">created_at </text>
<text text-anchor="start" x="531" y="-558.3" font-family="Arial" font-size="14.00" fill="#666666">[datetime]</text>
<polygon fill="none" stroke="#000000" points="441,-517.5 441,-546.5 675,-546.5 675,-517.5 441,-517.5"/>
<text text-anchor="start" x="448" y="-529.3" font-family="Arial" font-size="14.00" fill="#000000">updated_at </text>
<text text-anchor="start" x="531" y="-529.3" font-family="Arial" font-size="14.00" fill="#666666">[datetime]</text>
</g>
<!-- posts_fish_types&#45;&gt;posts -->
<g id="edge2" class="edge">
<title>posts_fish_types:post_id&#45;&gt;posts:id</title>
<path fill="none" stroke="#000000" d="M430.9707,-618.6507C380.1071,-609.3491 407.9866,-525.7997 441,-475 462.4671,-441.9672 500.5329,-472.0328 522,-439 544.1598,-404.9013 562.6667,-347.5 522,-347.5"/>
<polygon fill="#000000" stroke="#000000" points="431.0357,-618.6561 440.6202,-623.984 436.0178,-619.0781 441,-619.5 441,-619.5 441,-619.5 436.0178,-619.0781 441.3798,-615.016 431.0357,-618.6561 431.0357,-618.6561"/>
<text text-anchor="start" x="448.5" y="-629" font-family="Arial" font-size="10.00" fill="#000000">FOREIGN KEY (post_id) REFERENCES posts (id)</text>
</g>
<!-- schema_migrations -->
<g id="node4" class="node">
<title>schema_migrations</title>
<polygon fill="#efefef" stroke="transparent" points="780,-619.5 780,-653.5 1021,-653.5 1021,-619.5 780,-619.5"/>
<polygon fill="none" stroke="#000000" points="780,-619.5 780,-653.5 1021,-653.5 1021,-619.5 780,-619.5"/>
<text text-anchor="start" x="787" y="-633.1" font-family="Arial Bold" font-size="18.00" fill="#000000">schema_migrations</text>
<text text-anchor="start" x="915" y="-633.1" font-family="Arial" font-size="14.00" fill="#000000"> </text>
<text text-anchor="start" x="923" y="-633.1" font-family="Arial" font-size="14.00" fill="#666666">[BASE TABLE]</text>
<polygon fill="none" stroke="#000000" points="780,-590.5 780,-619.5 1021,-619.5 1021,-590.5 780,-590.5"/>
<text text-anchor="start" x="787" y="-602.3" font-family="Arial" font-size="14.00" fill="#000000">version </text>
<text text-anchor="start" x="848" y="-602.3" font-family="Arial" font-size="14.00" fill="#666666">[bigint(20)]</text>
<polygon fill="none" stroke="#000000" points="780,-561.5 780,-590.5 1021,-590.5 1021,-561.5 780,-561.5"/>
<text text-anchor="start" x="787" y="-573.3" font-family="Arial" font-size="14.00" fill="#000000">dirty </text>
<text text-anchor="start" x="833" y="-573.3" font-family="Arial" font-size="14.00" fill="#666666">[tinyint(1)]</text>
</g>
</g>
</svg>
